<mxfile host="Electron" modified="2023-05-04T12:13:42.965Z" agent="Mozilla/5.0 (Windows NT 10.0; Win64; x64) AppleWebKit/537.36 (KHTML, like Gecko) draw.io/21.2.1 Chrome/112.0.5615.87 Electron/24.1.2 Safari/537.36" etag="TpEDR2vsv8LLHY6KzdEl" version="21.2.1" type="device">
  <diagram name="Seite-1" id="Jo0jJrhiogDAooRWr75j">
    <mxGraphModel dx="1176" dy="679" grid="1" gridSize="10" guides="1" tooltips="1" connect="1" arrows="1" fold="1" page="1" pageScale="1" pageWidth="827" pageHeight="1169" math="0" shadow="0">
      <root>
        <mxCell id="0" />
        <mxCell id="1" parent="0" />
        <mxCell id="QcVAtToUawCgEPXJDihs-28" value="Beastopia&amp;nbsp;- Edit Profile" style="strokeWidth=1;shadow=0;dashed=0;align=center;html=1;shape=mxgraph.mockup.containers.window;align=left;verticalAlign=top;spacingLeft=8;strokeColor2=#008cff;strokeColor3=#c4c4c4;fontColor=#666666;mainText=;fontSize=17;labelBackgroundColor=none;whiteSpace=wrap;" parent="1" vertex="1">
          <mxGeometry x="82" y="50" width="663" height="500" as="geometry" />
        </mxCell>
        <mxCell id="QcVAtToUawCgEPXJDihs-29" value="" style="verticalLabelPosition=bottom;shadow=0;dashed=0;align=center;html=1;verticalAlign=top;strokeWidth=1;shape=mxgraph.mockup.graphics.simpleIcon;strokeColor=#999999;" parent="1" vertex="1">
          <mxGeometry x="82" y="81" width="663" height="469" as="geometry" />
        </mxCell>
        <mxCell id="QcVAtToUawCgEPXJDihs-30" value="&lt;p style=&quot;line-height: 20%;&quot;&gt;&lt;br&gt;&lt;/p&gt;" style="strokeWidth=1;shadow=0;dashed=0;align=center;html=1;shape=mxgraph.mockup.text.textBox;fontColor=#666666;align=left;fontSize=17;spacingLeft=4;spacingTop=-3;whiteSpace=wrap;strokeColor=#666666;mainText=" parent="1" vertex="1">
          <mxGeometry x="275" y="125" width="260" height="378.88" as="geometry" />
        </mxCell>
        <mxCell id="QcVAtToUawCgEPXJDihs-31" value="&lt;i&gt;MyUsername&lt;/i&gt;" style="strokeWidth=1;shadow=0;dashed=0;align=center;html=1;shape=mxgraph.mockup.forms.pwField;strokeColor=#999999;mainText=;align=left;fontColor=#666666;fontSize=17;spacingLeft=3;" parent="1" vertex="1">
          <mxGeometry x="285" y="155" width="230" height="24" as="geometry" />
        </mxCell>
        <mxCell id="QcVAtToUawCgEPXJDihs-32" value="&lt;b&gt;Username&lt;/b&gt;" style="text;html=1;strokeColor=none;fillColor=none;align=left;verticalAlign=middle;whiteSpace=wrap;overflow=hidden;" parent="1" vertex="1">
          <mxGeometry x="285" y="135" width="90" height="20" as="geometry" />
        </mxCell>
        <mxCell id="QcVAtToUawCgEPXJDihs-33" value="" style="verticalLabelPosition=bottom;shadow=0;dashed=0;align=center;html=1;verticalAlign=top;strokeWidth=1;shape=mxgraph.mockup.graphics.simpleIcon;strokeColor=#999999;" parent="1" vertex="1">
          <mxGeometry x="455" y="295.5" width="60" height="60" as="geometry" />
        </mxCell>
        <mxCell id="QcVAtToUawCgEPXJDihs-34" value="&lt;font style=&quot;font-size: 12px;&quot;&gt;Upload Avatar&lt;/font&gt;" style="strokeWidth=1;shadow=0;dashed=0;align=center;html=1;shape=mxgraph.mockup.buttons.button;strokeColor=#666666;fontColor=#ffffff;mainText=;buttonStyle=round;fontSize=17;fontStyle=1;fillColor=#008cff;whiteSpace=wrap;" parent="1" vertex="1">
          <mxGeometry x="283" y="295.5" width="129" height="30" as="geometry" />
        </mxCell>
        <mxCell id="QcVAtToUawCgEPXJDihs-35" value="" style="strokeWidth=1;shadow=0;dashed=0;align=center;html=1;shape=mxgraph.mockup.text.textBox;fontColor=#666666;align=left;fontSize=17;spacingLeft=4;spacingTop=-3;whiteSpace=wrap;strokeColor=#666666;mainText=" parent="1" vertex="1">
          <mxGeometry x="275" y="463.88" width="137" height="40" as="geometry" />
        </mxCell>
        <mxCell id="QcVAtToUawCgEPXJDihs-36" value="Back" style="text;html=1;strokeColor=none;fillColor=none;align=center;verticalAlign=middle;whiteSpace=wrap;rounded=0;fontSize=16;" parent="1" vertex="1">
          <mxGeometry x="292" y="468.88" width="104" height="30" as="geometry" />
        </mxCell>
        <mxCell id="QcVAtToUawCgEPXJDihs-37" value="" style="strokeWidth=1;shadow=0;dashed=0;align=center;html=1;shape=mxgraph.mockup.text.textBox;fontColor=#666666;align=left;fontSize=17;spacingLeft=4;spacingTop=-3;whiteSpace=wrap;strokeColor=#666666;mainText=" parent="1" vertex="1">
          <mxGeometry x="412" y="463.88" width="123" height="40" as="geometry" />
        </mxCell>
        <mxCell id="QcVAtToUawCgEPXJDihs-38" value="Edit Profile" style="text;html=1;strokeColor=none;fillColor=none;align=center;verticalAlign=middle;whiteSpace=wrap;rounded=0;fontSize=16;" parent="1" vertex="1">
          <mxGeometry x="429" y="468.88" width="94" height="30" as="geometry" />
        </mxCell>
        <mxCell id="QcVAtToUawCgEPXJDihs-39" value="&lt;b&gt;New Password&lt;/b&gt;" style="text;html=1;strokeColor=none;fillColor=none;align=left;verticalAlign=middle;whiteSpace=wrap;overflow=hidden;" parent="1" vertex="1">
          <mxGeometry x="285" y="185" width="97" height="20" as="geometry" />
        </mxCell>
        <mxCell id="QcVAtToUawCgEPXJDihs-42" value="" style="strokeWidth=1;shadow=0;dashed=0;align=center;html=1;shape=mxgraph.mockup.forms.pwField;strokeColor=#999999;mainText=;align=left;fontColor=#666666;fontSize=17;spacingLeft=3;" parent="1" vertex="1">
          <mxGeometry x="285" y="205" width="230" height="24" as="geometry" />
        </mxCell>
        <mxCell id="QcVAtToUawCgEPXJDihs-43" value="&lt;b&gt;Retype New Password&lt;/b&gt;" style="text;html=1;strokeColor=none;fillColor=none;align=left;verticalAlign=middle;whiteSpace=wrap;overflow=hidden;" parent="1" vertex="1">
          <mxGeometry x="285" y="235" width="197" height="20" as="geometry" />
        </mxCell>
        <mxCell id="QcVAtToUawCgEPXJDihs-44" value="" style="strokeWidth=1;shadow=0;dashed=0;align=center;html=1;shape=mxgraph.mockup.forms.pwField;strokeColor=#999999;mainText=;align=left;fontColor=#666666;fontSize=17;spacingLeft=3;" parent="1" vertex="1">
          <mxGeometry x="285" y="255" width="230" height="24" as="geometry" />
        </mxCell>
        <mxCell id="QsPxRH6t513nvKH4MEMH-2" value="Summer" style="shape=ellipse;fillColor=#eeeeee;strokeColor=#999999;gradientColor=#cccccc;html=1;align=left;spacingLeft=4;fontSize=17;fontColor=#666666;labelPosition=right;shadow=0;" parent="1" vertex="1">
          <mxGeometry x="383" y="429.5" width="15" height="15" as="geometry" />
        </mxCell>
        <mxCell id="TFWli3hZTlA2PPUU_04P-1" value="&lt;b&gt;Theme&lt;/b&gt;" style="text;html=1;strokeColor=none;fillColor=none;align=left;verticalAlign=middle;whiteSpace=wrap;overflow=hidden;" vertex="1" parent="1">
          <mxGeometry x="287" y="400" width="60" height="20" as="geometry" />
        </mxCell>
        <mxCell id="TFWli3hZTlA2PPUU_04P-2" value="Dark" style="shape=ellipse;fillColor=#eeeeee;strokeColor=#999999;gradientColor=#cccccc;html=1;align=left;spacingLeft=4;fontSize=17;fontColor=#666666;labelPosition=right;shadow=0;fixDash=0;noLabel=0;editable=1;movable=1;resizable=1;rotatable=1;deletable=1;locked=0;connectable=1;" vertex="1" parent="1">
          <mxGeometry x="287" y="429.5" width="15" height="15" as="geometry" />
        </mxCell>
        <mxCell id="TFWli3hZTlA2PPUU_04P-3" value="Deutsch" style="shape=ellipse;fillColor=#eeeeee;strokeColor=#999999;gradientColor=#cccccc;html=1;align=left;spacingLeft=4;fontSize=17;fontColor=#666666;labelPosition=right;shadow=0;" vertex="1" parent="1">
          <mxGeometry x="383" y="377.5" width="15" height="15" as="geometry" />
        </mxCell>
        <mxCell id="TFWli3hZTlA2PPUU_04P-4" value="&lt;b&gt;Language&lt;/b&gt;" style="text;html=1;strokeColor=none;fillColor=none;align=left;verticalAlign=middle;whiteSpace=wrap;overflow=hidden;" vertex="1" parent="1">
          <mxGeometry x="287" y="348" width="60" height="20" as="geometry" />
        </mxCell>
        <mxCell id="TFWli3hZTlA2PPUU_04P-5" value="English" style="shape=ellipse;fillColor=#eeeeee;strokeColor=#999999;gradientColor=#cccccc;html=1;align=left;spacingLeft=4;fontSize=17;fontColor=#666666;labelPosition=right;shadow=0;fixDash=0;noLabel=0;editable=1;movable=1;resizable=1;rotatable=1;deletable=1;locked=0;connectable=1;" vertex="1" parent="1">
          <mxGeometry x="287" y="377.5" width="15" height="15" as="geometry" />
        </mxCell>
      </root>
    </mxGraphModel>
  </diagram>
</mxfile>
